PathFileType	4	(X/Y/Z)	dyn.trc	
DataRate	CameraRate	NumFrames	NumMarkers	Units	OrigDataRate	OrigDataStartFrame	OrigNumFrames	
0.00	0.00	31	15	m	100.00	1	211	
Frame#	Time	RTT			RHF			RLM			RMM			RCA			RPT			RST			RVMB			RTN			RSMB			RFMB			RVMH			RSMH			RFMH			RPM			
		X1	Y1	Z1	X2	Y2	Z2	X3	Y3	Z3	X4	Y4	Z4	X5	Y5	Z5	X6	Y6	Z6	X7	Y7	Z7	X8	Y8	Z8	X9	Y9	Z9	X10	Y10	Z10	X11	Y11	Z11	X12	Y12	Z12	X13	Y13	Z13	X14	Y14	Z14	X15	Y15	Z15	

1	0.000	0.06381	0.45398	-0.13838	-0.00583	0.44566	-0.09039	0.14659	0.06794	-0.13891	0.16623	0.10136	-0.21044	0.11841	0.01602	-0.19143	0.15793	0.04497	-0.14250	0.17414	0.07342	-0.20733	0.20578	0.05312	-0.12178	0.21038	0.08512	-0.20013	0.22740	0.10783	-0.14446	0.24760	0.10475	-0.17757	0.25303	0.06528	-0.10031	0.28568	0.10047	-0.13257	0.29304	0.10838	-0.16678	0.32685	0.11538	-0.15993 
2	0.010	0.07194	0.45284	-0.13885	0.00225	0.44495	-0.09081	0.14939	0.06610	-0.13984	0.16947	0.09883	-0.21160	0.11943	0.01533	-0.19210	0.15992	0.04325	-0.14344	0.17672	0.07065	-0.20855	0.20794	0.05018	-0.12292	0.21311	0.08152	-0.20152	0.23072	0.10415	-0.14583	0.25079	0.10054	-0.17898	0.25545	0.06100	-0.10159	0.28883	0.09544	-0.13382	0.29635	0.10317	-0.16802	0.33049	0.10928	-0.16128 
3	0.020	0.07997	0.45175	-0.13932	0.01023	0.44429	-0.09122	0.15217	0.06431	-0.14074	0.17267	0.09636	-0.21272	0.12044	0.01469	-0.19276	0.16188	0.04158	-0.14434	0.17927	0.06795	-0.20973	0.21005	0.04730	-0.12403	0.21581	0.07798	-0.20286	0.23401	0.10053	-0.14715	0.25395	0.09637	-0.18036	0.25783	0.05678	-0.10283	0.29195	0.09046	-0.13503	0.29962	0.09801	-0.16922	0.33408	0.10321	-0.16259 
4	0.030	0.08790	0.45075	-0.13977	0.01813	0.44371	-0.09160	0.15488	0.06263	-0.14157	0.17581	0.09400	-0.21380	0.12143	0.01415	-0.19338	0.16379	0.04000	-0.14519	0.18177	0.06536	-0.21086	0.21210	0.04453	-0.12508	0.21847	0.07453	-0.20414	0.23726	0.09700	-0.14840	0.25708	0.09229	-0.18167	0.26014	0.05268	-0.10400	0.29500	0.08554	-0.13617	0.30284	0.09292	-0.17036	0.33760	0.09721	-0.16382 
5	0.040	0.09575	0.44986	-0.14021	0.02597	0.44327	-0.09192	0.15753	0.06110	-0.14232	0.17889	0.09178	-0.21479	0.12240	0.01376	-0.19393	0.16563	0.03856	-0.14597	0.18421	0.06292	-0.21191	0.21405	0.04191	-0.12604	0.22106	0.07123	-0.20533	0.24044	0.09360	-0.14955	0.26014	0.08830	-0.18290	0.26233	0.04874	-0.10504	0.29797	0.08073	-0.13722	0.30598	0.08792	-0.17141	0.34101	0.09126	-0.16496 
6	0.050	0.10350	0.44913	-0.14062	0.03375	0.44301	-0.09218	0.16009	0.05974	-0.14296	0.18187	0.08976	-0.21569	0.12335	0.01353	-0.19441	0.16738	0.03730	-0.14665	0.18657	0.06067	-0.21285	0.21589	0.03948	-0.12689	0.22357	0.06810	-0.20641	0.24354	0.09035	-0.15057	0.26311	0.08445	-0.18403	0.26439	0.04501	-0.10594	0.30082	0.07604	-0.13817	0.30901	0.08303	-0.17236	0.34427	0.08541	-0.16600 
7	0.060	0.11119	0.44857	-0.14101	0.04152	0.44296	-0.09235	0.16253	0.05859	-0.14348	0.18473	0.08794	-0.21648	0.12427	0.01348	-0.19479	0.16903	0.03621	-0.14722	0.18882	0.05863	-0.21368	0.21759	0.03726	-0.12762	0.22597	0.06517	-0.20736	0.24653	0.08729	-0.15146	0.26598	0.08076	-0.18505	0.26629	0.04154	-0.10668	0.30354	0.07151	-0.13899	0.31191	0.07829	-0.17320	0.34736	0.07967	-0.16692 
8	0.070	0.11881	0.44818	-0.14137	0.04929	0.44312	-0.09244	0.16486	0.05764	-0.14388	0.18746	0.08635	-0.21715	0.12515	0.01361	-0.19507	0.17056	0.03533	-0.14768	0.19095	0.05683	-0.21439	0.21913	0.03528	-0.12822	0.22824	0.06246	-0.20818	0.24940	0.08442	-0.15221	0.26871	0.07724	-0.18595	0.26802	0.03836	-0.10723	0.30610	0.06717	-0.13970	0.31465	0.07372	-0.17394	0.35025	0.07407	-0.16774 
9	0.080	0.12638	0.44796	-0.14170	0.05709	0.44352	-0.09243	0.16704	0.05689	-0.14415	0.19002	0.08499	-0.21772	0.12598	0.01391	-0.19524	0.17198	0.03463	-0.14803	0.19293	0.05527	-0.21498	0.22052	0.03354	-0.12869	0.23036	0.05999	-0.20886	0.25212	0.08177	-0.15281	0.27128	0.07392	-0.18673	0.26956	0.03549	-0.10760	0.30849	0.06305	-0.14029	0.31720	0.06935	-0.17458	0.35291	0.06865	-0.16846 
10	0.090	0.13390	0.44790	-0.14200	0.06493	0.44414	-0.09233	0.16906	0.05634	-0.14431	0.19241	0.08384	-0.21817	0.12676	0.01436	-0.19532	0.17328	0.03411	-0.14827	0.19475	0.05395	-0.21545	0.22175	0.03205	-0.12904	0.23232	0.05775	-0.20942	0.25467	0.07935	-0.15330	0.27366	0.07081	-0.18741	0.27091	0.03297	-0.10780	0.31069	0.05918	-0.14078	0.31955	0.06521	-0.17514	0.35533	0.06344	-0.16909 
11	0.100	0.14136	0.44798	-0.14228	0.07280	0.44495	-0.09214	0.17092	0.05596	-0.14438	0.19461	0.08290	-0.21853	0.12748	0.01492	-0.19529	0.17445	0.03374	-0.14842	0.19640	0.05285	-0.21581	0.22282	0.03079	-0.12928	0.23410	0.05575	-0.20986	0.25702	0.07715	-0.15367	0.27584	0.06793	-0.18799	0.27208	0.03078	-0.10784	0.31270	0.05560	-0.14119	0.32167	0.06132	-0.17564	0.35749	0.05849	-0.16967 
12	0.110	0.14875	0.44816	-0.14252	0.08070	0.44592	-0.09186	0.17262	0.05572	-0.14438	0.19660	0.08214	-0.21881	0.12814	0.01555	-0.19519	0.17550	0.03351	-0.14849	0.19786	0.05195	-0.21609	0.22373	0.02975	-0.12944	0.23568	0.05398	-0.21021	0.25917	0.07517	-0.15396	0.27780	0.06527	-0.18849	0.27306	0.02894	-0.10774	0.31450	0.05231	-0.14153	0.32356	0.05771	-0.17610	0.35938	0.05383	-0.17020 
13	0.120	0.15606	0.44841	-0.14272	0.08859	0.44702	-0.09152	0.17414	0.05560	-0.14432	0.19839	0.08153	-0.21903	0.12874	0.01623	-0.19502	0.17643	0.03339	-0.14851	0.19915	0.05123	-0.21630	0.22450	0.02891	-0.12953	0.23707	0.05243	-0.21048	0.26111	0.07341	-0.15418	0.27953	0.06286	-0.18893	0.27388	0.02743	-0.10753	0.31611	0.04935	-0.14182	0.32522	0.05439	-0.17654	0.36102	0.04949	-0.17071 
14	0.130	0.16327	0.44870	-0.14289	0.09645	0.44819	-0.09111	0.17549	0.05556	-0.14424	0.19996	0.08105	-0.21920	0.12927	0.01690	-0.19479	0.17725	0.03334	-0.14848	0.20025	0.05066	-0.21646	0.22515	0.02825	-0.12956	0.23826	0.05108	-0.21069	0.26283	0.07187	-0.15436	0.28102	0.06068	-0.18932	0.27455	0.02623	-0.10724	0.31752	0.04672	-0.14208	0.32665	0.05139	-0.17698	0.36240	0.04550	-0.17120 
15	0.140	0.17035	0.44898	-0.14301	0.10421	0.44938	-0.09067	0.17667	0.05559	-0.14414	0.20134	0.08067	-0.21935	0.12973	0.01755	-0.19453	0.17798	0.03336	-0.14843	0.20118	0.05021	-0.21658	0.22568	0.02774	-0.12957	0.23927	0.04990	-0.21086	0.26433	0.07052	-0.15452	0.28229	0.05873	-0.18967	0.27509	0.02532	-0.10689	0.31875	0.04442	-0.14232	0.32785	0.04870	-0.17742	0.36356	0.04187	-0.17169 
16	0.150	0.17726	0.44922	-0.14309	0.11183	0.45054	-0.09021	0.17771	0.05564	-0.14406	0.20253	0.08036	-0.21949	0.13013	0.01815	-0.19426	0.17861	0.03341	-0.14837	0.20195	0.04986	-0.21669	0.22611	0.02737	-0.12957	0.24011	0.04889	-0.21101	0.26564	0.06935	-0.15468	0.28334	0.05701	-0.19000	0.27551	0.02466	-0.10651	0.31981	0.04246	-0.14254	0.32886	0.04632	-0.17787	0.36450	0.03861	-0.17219 
17	0.160	0.18399	0.44941	-0.14312	0.11926	0.45162	-0.08974	0.17860	0.05572	-0.14401	0.20355	0.08010	-0.21963	0.13046	0.01868	-0.19398	0.17916	0.03347	-0.14832	0.20258	0.04959	-0.21680	0.22646	0.02710	-0.12956	0.24079	0.04801	-0.21115	0.26675	0.06835	-0.15485	0.28419	0.05550	-0.19032	0.27584	0.02421	-0.10613	0.32071	0.04081	-0.14276	0.32967	0.04426	-0.17834	0.36526	0.03573	-0.17268 
18	0.170	0.19051	0.44950	-0.14310	0.12644	0.45259	-0.08928	0.17937	0.05579	-0.14399	0.20440	0.07987	-0.21979	0.13075	0.01912	-0.19372	0.17963	0.03354	-0.14828	0.20308	0.04936	-0.21692	0.22675	0.02692	-0.12957	0.24133	0.04725	-0.21129	0.26769	0.06751	-0.15503	0.28486	0.05419	-0.19063	0.27609	0.02393	-0.10576	0.32147	0.03945	-0.14299	0.33033	0.04250	-0.17883	0.36586	0.03320	-0.17317 
19	0.180	0.19679	0.44949	-0.14303	0.13333	0.45342	-0.08884	0.18001	0.05585	-0.14401	0.20511	0.07966	-0.21997	0.13098	0.01949	-0.19348	0.18005	0.03361	-0.14827	0.20347	0.04916	-0.21705	0.22699	0.02680	-0.12960	0.24176	0.04659	-0.21145	0.26847	0.06681	-0.15524	0.28538	0.05306	-0.19095	0.27629	0.02379	-0.10544	0.32211	0.03837	-0.14321	0.33086	0.04101	-0.17932	0.36634	0.03102	-0.17365 
20	0.190	0.20280	0.44938	-0.14292	0.13988	0.45408	-0.08844	0.18056	0.05590	-0.14408	0.20570	0.07945	-0.22017	0.13116	0.01977	-0.19328	0.18040	0.03367	-0.14828	0.20378	0.04898	-0.21720	0.22720	0.02673	-0.12965	0.24208	0.04601	-0.21161	0.26913	0.06623	-0.15546	0.28577	0.05210	-0.19126	0.27645	0.02376	-0.10515	0.32264	0.03753	-0.14343	0.33127	0.03979	-0.17981	0.36671	0.02917	-0.17411 
21	0.200	0.20853	0.44916	-0.14277	0.14606	0.45459	-0.08807	0.18102	0.05592	-0.14419	0.20619	0.07925	-0.22040	0.13131	0.01998	-0.19311	0.18071	0.03371	-0.14832	0.20401	0.04882	-0.21738	0.22737	0.02669	-0.12972	0.24233	0.04551	-0.21179	0.26966	0.06575	-0.15570	0.28605	0.05129	-0.19157	0.27657	0.02379	-0.10493	0.32309	0.03690	-0.14365	0.33159	0.03880	-0.18029	0.36700	0.02761	-0.17454 
22	0.210	0.21396	0.44883	-0.14258	0.15186	0.45493	-0.08773	0.18140	0.05592	-0.14434	0.20658	0.07904	-0.22064	0.13142	0.02012	-0.19297	0.18097	0.03375	-0.14838	0.20419	0.04865	-0.21756	0.22753	0.02667	-0.12982	0.24252	0.04506	-0.21198	0.27010	0.06537	-0.15594	0.28626	0.05061	-0.19188	0.27668	0.02385	-0.10475	0.32345	0.03644	-0.14386	0.33185	0.03802	-0.18075	0.36724	0.02633	-0.17493 
23	0.220	0.21909	0.44841	-0.14236	0.15727	0.45513	-0.08745	0.18171	0.05591	-0.14451	0.20690	0.07883	-0.22090	0.13151	0.02021	-0.19288	0.18119	0.03376	-0.14847	0.20433	0.04848	-0.21776	0.22767	0.02665	-0.12993	0.24267	0.04466	-0.21217	0.27046	0.06507	-0.15619	0.28640	0.05004	-0.19218	0.27677	0.02394	-0.10463	0.32376	0.03612	-0.14406	0.33205	0.03741	-0.18118	0.36743	0.02529	-0.17527 
24	0.230	0.22391	0.44792	-0.14213	0.16229	0.45520	-0.08720	0.18197	0.05587	-0.14471	0.20716	0.07862	-0.22117	0.13157	0.02027	-0.19282	0.18137	0.03377	-0.14856	0.20444	0.04831	-0.21796	0.22780	0.02664	-0.13005	0.24278	0.04430	-0.21236	0.27075	0.06483	-0.15643	0.28651	0.04957	-0.19247	0.27686	0.02403	-0.10456	0.32401	0.03591	-0.14425	0.33222	0.03695	-0.18158	0.36760	0.02446	-0.17555 
25	0.240	0.22843	0.44736	-0.14188	0.16692	0.45517	-0.08699	0.18217	0.05583	-0.14492	0.20737	0.07842	-0.22143	0.13161	0.02030	-0.19279	0.18153	0.03377	-0.14867	0.20453	0.04813	-0.21816	0.22792	0.02663	-0.13019	0.24288	0.04397	-0.21254	0.27098	0.06465	-0.15666	0.28659	0.04919	-0.19274	0.27694	0.02410	-0.10454	0.32421	0.03579	-0.14441	0.33236	0.03662	-0.18193	0.36775	0.02380	-0.17578 
26	0.250	0.23264	0.44676	-0.14163	0.17119	0.45506	-0.08681	0.18234	0.05579	-0.14513	0.20755	0.07823	-0.22169	0.13164	0.02032	-0.19279	0.18166	0.03377	-0.14878	0.20460	0.04796	-0.21835	0.22803	0.02661	-0.13032	0.24296	0.04368	-0.21272	0.27117	0.06451	-0.15687	0.28666	0.04887	-0.19300	0.27701	0.02415	-0.10454	0.32438	0.03571	-0.14456	0.33249	0.03637	-0.18224	0.36788	0.02330	-0.17595 
27	0.260	0.23655	0.44613	-0.14138	0.17511	0.45491	-0.08667	0.18248	0.05574	-0.14534	0.20770	0.07805	-0.22193	0.13166	0.02033	-0.19280	0.18176	0.03376	-0.14890	0.20467	0.04780	-0.21852	0.22813	0.02658	-0.13045	0.24304	0.04341	-0.21288	0.27133	0.06441	-0.15706	0.28672	0.04861	-0.19323	0.27708	0.02418	-0.10457	0.32451	0.03567	-0.14468	0.33260	0.03620	-0.18249	0.36801	0.02293	-0.17606 
28	0.270	0.24020	0.44549	-0.14115	0.17872	0.45473	-0.08655	0.18258	0.05570	-0.14553	0.20783	0.07789	-0.22216	0.13166	0.02034	-0.19283	0.18184	0.03376	-0.14901	0.20472	0.04764	-0.21868	0.22822	0.02655	-0.13057	0.24311	0.04317	-0.21301	0.27146	0.06434	-0.15722	0.28678	0.04839	-0.19344	0.27714	0.02419	-0.10461	0.32462	0.03565	-0.14478	0.33271	0.03608	-0.18270	0.36814	0.02266	-0.17611 
29	0.280	0.24358	0.44486	-0.14092	0.18204	0.45454	-0.08645	0.18267	0.05567	-0.14571	0.20794	0.07776	-0.22237	0.13166	0.02036	-0.19287	0.18191	0.03375	-0.14911	0.20478	0.04749	-0.21882	0.22830	0.02652	-0.13068	0.24318	0.04295	-0.21313	0.27156	0.06428	-0.15736	0.28685	0.04820	-0.19362	0.27719	0.02417	-0.10465	0.32471	0.03563	-0.14485	0.33281	0.03600	-0.18286	0.36825	0.02246	-0.17612 
30	0.290	0.24672	0.44424	-0.14070	0.18510	0.45437	-0.08636	0.18274	0.05564	-0.14587	0.20804	0.07764	-0.22256	0.13166	0.02039	-0.19292	0.18196	0.03374	-0.14920	0.20482	0.04735	-0.21893	0.22837	0.02647	-0.13077	0.24326	0.04275	-0.21322	0.27165	0.06424	-0.15748	0.28692	0.04804	-0.19377	0.27723	0.02414	-0.10470	0.32478	0.03561	-0.14491	0.33291	0.03594	-0.18298	0.36837	0.02233	-0.17608 
31	0.300	0.24964	0.44365	-0.14049	0.18793	0.45422	-0.08629	0.18279	0.05562	-0.14601	0.20813	0.07755	-0.22272	0.13165	0.02043	-0.19296	0.18199	0.03373	-0.14929	0.20486	0.04723	-0.21902	0.22842	0.02643	-0.13084	0.24333	0.04258	-0.21330	0.27172	0.06421	-0.15757	0.28699	0.04790	-0.19390	0.27727	0.02409	-0.10473	0.32484	0.03559	-0.14493	0.33300	0.03590	-0.18306	0.36847	0.02224	-0.17600 
